<?xml version="1.0" standalone="no"?>
<!DOCTYPE svg PUBLIC "-//W3C//DTD SVG 20010904//EN"
 "http://www.w3.org/TR/2001/REC-SVG-20010904/DTD/svg10.dtd">
<svg version="1.0" xmlns="http://www.w3.org/2000/svg"
 width="1472.000000pt" height="832.000000pt" viewBox="0 0 1472.000000 832.000000"
 preserveAspectRatio="xMidYMid meet">

<g transform="translate(0.000000,832.000000) scale(0.100000,-0.100000)"
fill="#000000" stroke="none">
<path d="M9240 7341 c25 -4 63 -17 85 -29 26 -16 34 -18 25 -7 -23 28 -67 45
-112 44 l-43 -2 45 -6z"/>
<path d="M9153 7333 c9 -2 23 -2 30 0 6 3 -1 5 -18 5 -16 0 -22 -2 -12 -5z"/>
<path d="M9050 7316 c-241 -68 -521 -239 -835 -510 -151 -130 -415 -399 -403
-411 2 -2 42 38 88 91 187 209 533 503 750 636 136 83 293 154 420 188 36 10
56 18 45 18 -11 1 -40 -5 -65 -12z"/>
<path d="M9371 7259 c6 -13 18 -60 25 -104 10 -67 12 -73 13 -34 1 50 -23 144
-40 155 -7 4 -6 -3 2 -17z"/>
<path d="M9392 7031 c-2 -48 -42 -253 -73 -371 -68 -261 -260 -768 -349 -924
-99 -173 -210 -258 -617 -473 -18 -9 -31 -18 -29 -20 1 -2 83 24 182 58 98 33
194 65 212 70 18 6 60 23 95 40 49 23 63 26 65 15 6 -26 -48 -217 -99 -355
-119 -318 -269 -587 -450 -806 -162 -198 -406 -391 -721 -570 -62 -36 -109
-65 -104 -65 4 0 45 11 90 24 44 14 131 39 191 56 99 28 275 101 275 114 0 5
-81 -27 -121 -49 -15 -8 -51 -21 -80 -29 -30 -8 -67 -19 -82 -25 -48 -19 -54
-12 -12 14 22 14 51 24 65 22 19 -1 28 5 39 29 8 20 25 35 47 43 21 7 32 17
28 23 -5 7 -1 9 9 5 11 -4 25 5 43 28 14 19 33 35 41 35 8 0 11 5 7 12 -5 8
-2 9 9 5 11 -4 17 -1 17 9 0 8 4 13 8 10 5 -3 34 22 66 55 32 33 71 66 87 75
16 8 29 20 29 26 0 13 47 58 53 51 3 -2 10 10 16 28 8 22 15 30 26 25 10 -3
15 -1 14 7 -3 14 18 67 26 67 4 0 3 -6 -2 -12 -4 -7 7 -2 23 12 17 14 28 26
24 28 -10 4 0 42 11 42 5 0 9 5 9 10 0 11 3 16 45 63 14 15 25 32 25 38 0 5
18 39 40 75 22 36 45 83 51 104 7 22 20 48 29 57 9 10 14 25 12 32 -3 9 0 11
7 6 8 -5 11 -1 9 11 -2 11 2 18 9 17 7 -2 10 3 7 11 -3 8 9 47 26 88 30 69 49
115 90 218 22 55 76 268 84 330 l5 45 -74 -36 c-41 -20 -89 -36 -107 -36 -18
0 -25 2 -15 4 9 3 17 9 17 15 0 5 6 8 12 6 14 -5 38 15 38 31 0 6 7 11 15 11
8 0 15 4 15 10 0 5 7 7 15 4 8 -4 15 -1 15 5 0 6 14 25 30 43 17 17 30 35 30
39 0 5 6 9 13 9 7 0 21 16 30 35 9 19 21 35 26 35 5 0 13 10 17 23 3 12 13 30
21 39 9 10 13 24 10 32 -3 8 1 17 8 20 8 3 12 12 9 20 -3 8 3 31 14 53 11 21
26 58 33 83 7 25 26 69 41 99 15 29 28 60 28 68 0 8 4 11 10 8 6 -4 7 1 3 11
-4 12 -3 15 5 10 8 -5 12 1 12 16 0 13 28 102 61 198 71 202 104 316 130 450
30 153 40 228 36 268 -4 36 -4 36 -5 -7z"/>
<path d="M7776 6347 c-29 -38 -76 -135 -76 -158 0 -9 -8 -23 -17 -30 -11 -9
-14 -10 -9 -2 4 7 2 21 -4 30 -16 26 -4 -261 15 -357 16 -78 83 -290 92 -290
3 0 2 8 -1 17 -4 10 -19 85 -34 168 -22 124 -27 180 -27 325 0 190 4 208 72
298 13 17 22 32 19 32 -3 0 -16 -15 -30 -33z m-83 -387 c3 -56 2 -83 -3 -65
-8 30 -13 172 -6 164 2 -2 6 -47 9 -99z"/>
<path d="M8520 6200 c-6 -11 -8 -20 -6 -20 3 0 10 9 16 20 6 11 8 20 6 20 -3
0 -10 -9 -16 -20z"/>
<path d="M7590 6125 c-13 -14 -19 -25 -14 -25 8 1 50 50 41 50 -2 0 -14 -11
-27 -25z"/>
<path d="M8429 6058 c-18 -29 -47 -75 -64 -103 -359 -569 -744 -1322 -1105
-2165 -32 -74 -87 -202 -123 -285 -36 -82 -86 -202 -112 -265 -46 -113 -61
-146 -183 -420 -124 -279 -269 -587 -296 -628 -25 -40 -49 -51 -52 -24 -1 7
-2 16 -3 21 -2 20 -123 161 -137 161 -9 0 -12 5 -8 11 3 6 15 9 25 6 11 -3 17
-1 14 3 -7 12 -94 44 -101 37 -3 -3 8 -8 25 -12 42 -9 48 -24 12 -31 -26 -6
-28 -8 -18 -25 7 -11 22 -19 34 -19 13 0 23 -4 23 -9 0 -5 -19 -7 -42 -4 l-43
4 23 -21 c12 -11 27 -18 32 -15 6 3 10 -3 10 -13 0 -11 11 -27 25 -36 14 -10
31 -28 37 -41 12 -27 4 -44 -127 -280 -185 -333 -395 -749 -395 -782 0 -55 23
-105 53 -118 21 -9 26 -14 16 -19 -11 -5 -11 -7 -1 -12 6 -3 9 -10 6 -16 -4
-5 7 -8 27 -6 23 2 35 9 39 23 3 12 20 37 39 57 39 43 65 88 50 88 -6 0 -2 12
8 28 10 15 32 54 48 87 16 33 33 62 37 63 5 2 6 8 2 13 -3 5 0 9 5 9 6 0 11 4
11 10 0 5 15 30 34 55 19 24 37 58 41 75 4 16 10 30 14 30 28 0 80 87 66 110
-3 6 -1 9 7 8 7 -2 12 5 12 15 -1 9 4 17 12 17 8 0 14 7 14 15 0 8 4 15 10 15
5 0 9 3 8 8 -3 13 14 77 26 92 24 32 36 61 30 72 -4 7 -3 8 4 4 7 -4 12 -1 12
9 0 8 7 18 15 21 8 4 15 15 15 25 0 10 5 18 10 16 8 -1 31 29 46 61 1 2 18 0
39 -4 25 -4 39 -14 45 -29 5 -14 23 -28 47 -35 21 -7 49 -21 63 -30 30 -21 69
-28 89 -16 10 6 12 5 7 -2 -4 -7 2 -16 17 -21 14 -6 27 -16 30 -23 4 -8 8 -5
12 9 7 23 25 32 25 13 0 -5 7 -10 16 -10 9 0 12 -5 8 -12 -4 -6 -3 -8 3 -5 6
4 16 0 23 -8 7 -8 20 -15 29 -16 13 0 13 -2 1 -6 -8 -4 16 -14 54 -25 38 -10
71 -16 74 -13 3 3 -1 5 -9 5 -26 1 -95 54 -91 72 2 10 -22 41 -60 78 -91 89
-105 91 -20 3 67 -70 83 -93 65 -93 -5 0 -37 25 -73 55 -73 63 -400 233 -400
209 0 -24 -159 -320 -307 -572 -241 -410 -272 -452 -329 -452 -37 0 -64 29
-64 67 0 25 196 416 350 698 51 94 112 206 136 250 47 89 60 97 125 71 46 -18
59 -20 59 -6 0 5 42 94 93 197 93 187 218 455 284 608 19 44 72 168 118 275
649 1524 892 2026 1328 2755 33 55 67 110 75 123 8 12 12 22 9 22 -3 0 -20
-24 -38 -52z"/>
<path d="M7538 6063 c-35 -37 -145 -193 -190 -268 -42 -70 -110 -205 -104
-205 2 0 25 39 50 86 54 102 155 258 226 349 54 69 60 82 18 38z"/>
<path d="M7192 5487 c-64 -143 -65 -148 -61 -409 2 -130 3 -235 2 -234 -1 1
-13 35 -27 76 -17 51 -23 62 -19 35 3 -22 28 -103 55 -180 26 -77 46 -129 44
-115 -27 148 -40 288 -40 440 -1 190 14 276 69 411 39 96 24 80 -23 -24z"/>
<path d="M7082 5404 c-7 -8 -8 -14 -3 -14 10 0 25 19 20 25 -2 1 -10 -3 -17
-11z"/>
<path d="M7056 5319 c-3 -17 -5 -70 -4 -118 l1 -86 7 115 c8 120 7 142 -4 89z"/>
<path d="M6993 5308 c-44 -47 -147 -188 -141 -193 3 -3 31 32 64 77 32 46 72
97 88 115 36 43 29 43 -11 1z"/>
<path d="M7062 5085 c0 -16 2 -22 5 -12 2 9 2 23 0 30 -3 6 -5 -1 -5 -18z"/>
<path d="M6814 5059 c-44 -70 -112 -230 -135 -318 -17 -64 -30 -93 -53 -116
-39 -38 -99 -151 -120 -225 -28 -97 -56 -263 -56 -332 0 -106 29 -273 65 -381
38 -110 195 -418 195 -382 0 6 -27 89 -60 185 -110 324 -148 486 -157 670 -5
95 -2 129 15 195 23 94 69 196 109 243 l28 33 1 -83 c0 -48 8 -108 18 -143 18
-62 86 -218 92 -212 2 2 -5 35 -16 73 -30 102 -60 279 -60 350 0 120 30 219
115 382 56 106 64 132 19 61z m-293 -1231 c10 -43 19 -85 19 -94 0 -10 12 -46
26 -82 18 -46 23 -67 15 -75 -8 -8 -11 -7 -12 4 -2 28 -4 34 -18 58 -15 26
-51 141 -56 181 -2 14 -9 45 -14 70 -6 25 -10 68 -9 95 l0 50 15 -65 c8 -36
23 -100 34 -142z"/>
<path d="M7072 5020 c0 -14 2 -19 5 -12 2 6 2 18 0 25 -3 6 -5 1 -5 -13z"/>
<path d="M8325 4112 c-31 -66 -55 -100 -110 -155 -38 -38 -87 -81 -107 -95
-21 -13 -38 -26 -38 -29 0 -10 47 23 110 78 76 65 140 145 171 212 l19 42 0
-60 c0 -71 -40 -268 -76 -380 -62 -186 -193 -403 -315 -521 -91 -87 -168 -137
-279 -182 -185 -74 -259 -106 -342 -150 -49 -25 -86 -47 -84 -49 2 -2 83 19
181 47 97 27 185 50 194 50 12 0 13 2 3 9 -7 4 -25 6 -39 3 -41 -8 -19 14 32
31 39 14 45 14 45 1 0 -20 27 -17 50 6 11 11 45 34 75 50 30 16 69 42 86 57
17 16 45 40 62 56 17 15 36 27 42 27 15 0 65 56 58 64 -3 3 8 19 24 36 16 17
40 52 52 78 32 65 111 224 121 242 17 31 42 86 45 101 2 9 13 52 24 95 12 44
28 119 36 168 16 93 20 242 8 249 -5 2 -26 -34 -48 -81z"/>
<path d="M6760 4171 c0 -6 4 -13 10 -16 6 -3 7 1 4 9 -7 18 -14 21 -14 7z"/>
<path d="M6381 4054 c0 -11 3 -14 6 -6 3 7 2 16 -1 19 -3 4 -6 -2 -5 -13z"/>
<path d="M6362 3975 c-7 -33 -17 -118 -23 -190 -12 -154 -25 -260 -28 -224 0
14 -7 33 -14 43 -12 16 -16 0 -32 -119 -17 -128 -17 -143 -3 -226 12 -66 29
-114 69 -194 78 -157 79 -156 19 70 -27 106 -57 341 -44 354 2 2 4 -4 5 -15 1
-15 3 -13 8 6 6 19 10 10 16 -43 10 -94 30 -163 44 -159 7 1 10 -2 6 -7 -7
-12 62 -167 71 -159 3 3 -6 44 -20 89 -24 81 -47 184 -65 299 -13 79 -13 16 0
-96 6 -53 9 -98 6 -100 -6 -7 -37 239 -36 286 l2 45 7 -40 c4 -23 7 26 8 120
0 88 6 190 12 227 15 85 8 114 -8 33z"/>
<path d="M6234 3545 c-4 -16 -9 -32 -9 -35 -1 -3 -12 -27 -24 -55 -39 -87 -59
-330 -32 -382 3 -6 6 48 7 120 0 118 3 140 28 207 39 104 48 138 43 158 -3 12
-6 8 -13 -13z"/>
<path d="M6116 3325 c-9 -26 -7 -32 5 -12 6 10 9 21 6 23 -2 3 -7 -2 -11 -11z"/>
<path d="M6101 3274 c0 -11 3 -14 6 -6 3 7 2 16 -1 19 -3 4 -6 -2 -5 -13z"/>
<path d="M6082 3087 c-2 -115 -1 -120 33 -193 19 -43 39 -73 45 -69 5 3 7 0 4
-8 -3 -8 6 -27 21 -43 33 -38 29 -19 -21 85 -57 119 -66 153 -74 256 l-7 90
-1 -118z"/>
<path d="M7989 3013 c-1 -5 -1 -11 0 -15 1 -11 -13 -10 -25 2 -6 6 -14 2 -22
-11 -12 -18 -10 -19 15 -14 25 6 22 1 -28 -47 -53 -51 -135 -100 -198 -118
-39 -11 -32 13 9 30 16 7 40 21 52 32 13 11 30 24 38 28 8 5 12 11 9 15 -4 3
-44 -18 -90 -48 -53 -34 -134 -73 -219 -105 -145 -55 -146 -62 -5 -33 195 40
374 133 450 231 32 41 41 60 31 60 -9 0 -17 -3 -17 -7z"/>
<path d="M8007 2933 c-35 -56 -41 -71 -19 -44 26 32 55 81 48 81 -3 0 -16 -17
-29 -37z"/>
<path d="M7875 2763 c-69 -74 -119 -116 -215 -179 -159 -105 -365 -209 -466
-236 -86 -23 -48 -34 151 -44 80 -4 144 -2 165 4 30 9 27 10 -26 5 -75 -7
-216 5 -208 18 3 5 19 9 35 9 21 0 28 4 23 12 -5 7 -2 9 9 5 10 -4 14 -2 11 6
-3 8 8 13 30 14 23 2 36 -2 40 -12 6 -16 4 -17 67 40 9 8 32 15 52 15 51 0 67
9 68 39 0 23 1 24 9 6 8 -18 9 -19 9 -1 1 12 6 16 16 12 8 -3 15 -1 15 4 0 6
-8 10 -17 11 -15 0 -14 3 5 16 12 8 22 21 22 27 0 13 49 38 61 30 5 -3 6 2 3
11 -5 12 -9 13 -20 4 -11 -9 -14 -9 -14 0 0 6 14 14 31 18 17 3 33 12 36 20 4
9 14 12 27 9 23 -6 63 29 58 50 -3 14 54 64 64 56 5 -4 2 2 -6 12 -10 13 -10
17 -2 12 7 -4 15 -1 19 10 6 16 7 16 18 0 11 -15 13 -14 18 6 4 12 2 28 -4 34
-7 9 -7 19 1 33 6 12 9 21 8 21 -2 -1 -43 -44 -93 -97z m-268 -265 c-3 -8 -6
-5 -6 6 -1 11 2 17 5 13 3 -3 4 -12 1 -19z m-44 -55 c-7 -2 -19 -2 -25 0 -7 3
-2 5 12 5 14 0 19 -2 13 -5z"/>
<path d="M6086 2760 c4 -19 7 -40 7 -47 0 -7 4 -10 8 -8 4 3 14 -6 23 -20 31
-47 165 -162 231 -197 l20 -11 -20 23 c-11 12 -55 51 -97 87 -43 35 -101 97
-129 136 -46 65 -50 69 -43 37z"/>
<path d="M6104 2677 c3 -10 6 -22 6 -25 0 -4 23 -32 50 -62 28 -30 50 -59 50
-63 0 -5 9 -21 21 -35 l21 -27 -34 -6 c-22 -4 -7 -7 47 -8 44 -1 91 -4 104 -8
43 -11 14 14 -59 53 -64 33 -129 92 -189 169 -12 17 -20 22 -17 12z"/>
<path d="M6095 2440 l-30 -8 35 -1 c19 0 42 4 50 9 12 8 11 10 -5 9 -11 -1
-33 -5 -50 -9z"/>
<path d="M6185 2410 c-3 -6 3 -10 13 -10 11 0 22 -7 26 -15 4 -12 -3 -15 -37
-14 -40 1 -40 2 -12 9 l30 8 -28 1 c-16 0 -25 5 -22 11 3 5 0 8 -7 6 -7 -2
-35 -10 -61 -16 -26 -7 -45 -16 -41 -19 3 -3 57 -8 120 -11 101 -4 114 -3 114
11 0 9 -7 20 -16 23 -8 3 -13 10 -10 14 3 5 -10 9 -29 10 -19 1 -37 -3 -40 -8z"/>
<path d="M6295 2380 c3 -5 14 -10 23 -10 15 0 15 2 2 10 -20 13 -33 13 -25 0z"/>
<path d="M6010 2360 c0 -5 5 -10 10 -10 6 0 10 5 10 10 0 6 -4 10 -10 10 -5 0
-10 -4 -10 -10z"/>
<path d="M7625 2338 c-16 -12 -32 -25 -35 -28 -10 -12 -106 -49 -165 -63 -72
-18 -133 -25 -320 -33 -77 -3 -142 -8 -144 -10 -5 -5 111 -114 122 -114 5 0
15 7 23 15 14 13 13 15 -3 15 -30 0 -67 21 -88 49 -17 23 -17 24 -1 12 11 -10
35 -14 67 -12 40 2 50 -1 56 -16 6 -16 8 -15 13 7 6 24 9 25 70 22 35 -1 69
-7 74 -12 18 -18 100 -12 124 10 12 11 27 20 34 20 7 0 27 9 43 20 17 11 36
20 44 20 22 0 131 92 131 111 0 14 -12 10 -45 -13z m-95 -88 c-8 -5 -19 -10
-25 -10 -5 0 -3 5 5 10 8 5 20 10 25 10 6 0 3 -5 -5 -10z m-177 -47 c-7 -2
-21 -2 -30 0 -10 3 -4 5 12 5 17 0 24 -2 18 -5z"/>
<path d="M6270 2336 c0 -2 7 -6 15 -10 8 -3 15 -1 15 4 0 6 -7 10 -15 10 -8 0
-15 -2 -15 -4z"/>
<path d="M6842 2121 c14 -11 33 -19 40 -16 8 3 31 -6 51 -19 21 -15 77 -35
130 -47 83 -19 188 -67 247 -115 8 -6 33 -17 55 -24 22 -7 43 -18 47 -24 4 -6
10 -7 14 -3 11 11 -17 28 -166 106 -118 61 -298 133 -363 145 -12 2 -35 7 -52
11 l-30 8 27 -22z"/>
<path d="M6940 2045 c0 -16 25 -37 33 -29 4 4 29 -3 58 -15 78 -34 67 -21 -17
20 -46 23 -74 32 -74 24z"/>
<path d="M6980 1999 c0 -9 9 -24 19 -33 15 -14 21 -15 27 -4 4 7 3 10 -1 5 -5
-4 -17 5 -27 20 -12 18 -18 22 -18 12z"/>
<path d="M7158 1963 c6 -2 10 -8 7 -12 -2 -5 8 -6 23 -3 24 5 24 6 7 13 -11 4
-27 8 -35 8 -10 -1 -11 -2 -2 -6z"/>
<path d="M7026 1927 c3 -10 9 -15 12 -12 3 3 0 11 -7 18 -10 9 -11 8 -5 -6z"/>
</g>
</svg>
